<svg width="152" height="142" viewBox="0 0 152 142" fill="none" xmlns="http://www.w3.org/2000/svg">
<g filter="url(#filter0_d_22_53)">
<path d="M64.9186 81.896C62.0813 81.896 59.7106 81.2987 57.8066 80.104C55.9026 78.872 54.4093 77.2667 53.3266 75.288C52.244 73.272 51.46 71.0693 50.9746 68.68C50.5266 66.2907 50.3026 63.92 50.3026 61.568C50.3026 59.216 50.5826 56.8267 51.1426 54.4C51.74 51.9733 52.636 49.752 53.8306 47.736C55.0253 45.6827 56.556 44.04 58.4226 42.808C60.2893 41.5387 62.5293 40.904 65.1426 40.904C67.868 40.904 70.1453 41.52 71.9746 42.752C73.8413 43.984 75.3346 45.608 76.4546 47.624C77.5746 49.6027 78.3773 51.7867 78.8626 54.176C79.348 56.5653 79.5906 58.936 79.5906 61.288C79.5906 63.6027 79.3106 65.9733 78.7506 68.4C78.1906 70.8267 77.3133 73.0667 76.1186 75.12C74.9613 77.136 73.4493 78.7787 71.5826 80.048C69.7533 81.28 67.532 81.896 64.9186 81.896ZM65.2546 79.096C66.7853 79.096 68.036 78.6293 69.0066 77.696C69.9773 76.7627 70.7426 75.4933 71.3026 73.888C71.9 72.2827 72.3106 70.4907 72.5346 68.512C72.7586 66.5333 72.8706 64.5173 72.8706 62.464C72.8706 60.1867 72.7586 57.9467 72.5346 55.744C72.3106 53.504 71.9 51.4693 71.3026 49.64C70.7426 47.8107 69.9586 46.3547 68.9506 45.272C67.9426 44.1893 66.636 43.648 65.0306 43.648C63.5373 43.648 62.268 44.1147 61.2226 45.048C60.1773 45.9813 59.3373 47.2507 58.7026 48.856C58.1053 50.4613 57.6573 52.272 57.3586 54.288C57.0973 56.2667 56.9666 58.3013 56.9666 60.392C56.9666 61.96 57.0226 63.6027 57.1346 65.32C57.284 67.0373 57.5266 68.7173 57.8626 70.36C58.236 72.0027 58.7213 73.4773 59.3186 74.784C59.9533 76.0907 60.756 77.136 61.7266 77.92C62.6973 78.704 63.8733 79.096 65.2546 79.096ZM86.7013 81V78.536C87.8586 78.4613 88.7546 78.2187 89.3893 77.808C90.0613 77.3973 90.5466 76.7813 90.8453 75.96C91.144 75.1013 91.2933 74 91.2933 72.656L91.1813 47.568L84.6293 51.656L83.2293 49.416L94.7653 40.904H97.1733L97.2293 73.888C97.2293 74.672 97.2106 75.456 97.1733 76.24C97.1733 76.9867 97.136 77.6213 97.0613 78.144C97.7706 78.0693 98.536 78.032 99.3573 78.032C100.179 77.9947 100.925 77.9573 101.597 77.92V81H86.7013Z" fill="url(#paint0_linear_22_53)" fill-opacity="0.5"/>
</g>
<defs>
<filter id="filter0_d_22_53" x="0.302612" y="0.904053" width="151.295" height="140.992" filterUnits="userSpaceOnUse" color-interpolation-filters="sRGB">
<feFlood flood-opacity="0" result="BackgroundImageFix"/>
<feColorMatrix in="SourceAlpha" type="matrix" values="0 0 0 0 0 0 0 0 0 0 0 0 0 0 0 0 0 0 127 0" result="hardAlpha"/>
<feOffset dy="10"/>
<feGaussianBlur stdDeviation="25"/>
<feColorMatrix type="matrix" values="0 0 0 0 0.317647 0 0 0 0 0.6 0 0 0 0 1 0 0 0 0.3 0"/>
<feBlend mode="normal" in2="BackgroundImageFix" result="effect1_dropShadow_22_53"/>
<feBlend mode="normal" in="SourceGraphic" in2="effect1_dropShadow_22_53" result="shape"/>
</filter>
<linearGradient id="paint0_linear_22_53" x1="75.5" y1="37" x2="75.5" y2="87" gradientUnits="userSpaceOnUse">
<stop stop-color="#5199FF"/>
<stop offset="1" stop-color="#1771F1"/>
</linearGradient>
</defs>
</svg>
