<svg width="160" height="142" viewBox="0 0 160 142" fill="none" xmlns="http://www.w3.org/2000/svg">
<g filter="url(#filter0_d_22_67)">
<path d="M64.6257 81.896C61.7883 81.896 59.4177 81.2987 57.5137 80.104C55.6097 78.872 54.1163 77.2667 53.0337 75.288C51.951 73.272 51.167 71.0693 50.6817 68.68C50.2337 66.2907 50.0097 63.92 50.0097 61.568C50.0097 59.216 50.2897 56.8267 50.8497 54.4C51.447 51.9733 52.343 49.752 53.5377 47.736C54.7323 45.6827 56.263 44.04 58.1297 42.808C59.9963 41.5387 62.2363 40.904 64.8497 40.904C67.575 40.904 69.8523 41.52 71.6817 42.752C73.5483 43.984 75.0417 45.608 76.1617 47.624C77.2817 49.6027 78.0843 51.7867 78.5697 54.176C79.055 56.5653 79.2977 58.936 79.2977 61.288C79.2977 63.6027 79.0177 65.9733 78.4577 68.4C77.8977 70.8267 77.0203 73.0667 75.8257 75.12C74.6683 77.136 73.1563 78.7787 71.2897 80.048C69.4603 81.28 67.239 81.896 64.6257 81.896ZM64.9617 79.096C66.4923 79.096 67.743 78.6293 68.7137 77.696C69.6843 76.7627 70.4497 75.4933 71.0097 73.888C71.607 72.2827 72.0177 70.4907 72.2417 68.512C72.4657 66.5333 72.5777 64.5173 72.5777 62.464C72.5777 60.1867 72.4657 57.9467 72.2417 55.744C72.0177 53.504 71.607 51.4693 71.0097 49.64C70.4497 47.8107 69.6657 46.3547 68.6577 45.272C67.6497 44.1893 66.343 43.648 64.7377 43.648C63.2443 43.648 61.975 44.1147 60.9297 45.048C59.8843 45.9813 59.0443 47.2507 58.4097 48.856C57.8123 50.4613 57.3643 52.272 57.0657 54.288C56.8043 56.2667 56.6737 58.3013 56.6737 60.392C56.6737 61.96 56.7297 63.6027 56.8417 65.32C56.991 67.0373 57.2337 68.7173 57.5697 70.36C57.943 72.0027 58.4283 73.4773 59.0257 74.784C59.6603 76.0907 60.463 77.136 61.4337 77.92C62.4043 78.704 63.5803 79.096 64.9617 79.096ZM84.3429 81C84.3429 79.0213 84.6229 77.2667 85.1829 75.736C85.7802 74.2053 86.5642 72.8053 87.5349 71.536C88.5056 70.2667 89.6069 69.0533 90.8389 67.896C92.0709 66.7387 93.3216 65.544 94.5909 64.312C97.1296 61.9227 98.9402 59.7387 100.023 57.76C101.143 55.744 101.703 53.784 101.703 51.88C101.703 50.536 101.516 49.248 101.143 48.016C100.77 46.7467 100.116 45.7013 99.1829 44.88C98.2496 44.0587 96.9616 43.6667 95.3189 43.704C93.9376 43.704 92.7056 44.04 91.6229 44.712C90.5776 45.3467 89.8496 46.1493 89.4389 47.12C89.8496 47.4933 90.1296 47.9227 90.2789 48.408C90.4282 48.8933 90.5029 49.3413 90.5029 49.752C90.5029 50.088 90.3909 50.4987 90.1669 50.984C89.9802 51.432 89.6629 51.824 89.2149 52.16C88.7669 52.496 88.1696 52.664 87.4229 52.664C86.4896 52.6267 85.7616 52.2907 85.2389 51.656C84.7536 50.984 84.5109 50.1813 84.5109 49.248C84.5109 48.464 84.7536 47.5867 85.2389 46.616C85.7242 45.6453 86.4709 44.7307 87.4789 43.872C88.4869 43.0133 89.7189 42.304 91.1749 41.744C92.6682 41.184 94.4042 40.904 96.3829 40.904C97.8762 40.904 99.3322 41.0907 100.751 41.464C102.17 41.8 103.458 42.3787 104.615 43.2C105.772 43.984 106.687 45.0293 107.359 46.336C108.031 47.6427 108.367 49.2667 108.367 51.208C108.367 52.1413 108.18 53.1493 107.807 54.232C107.434 55.2773 106.799 56.416 105.903 57.648C105.044 58.88 103.887 60.224 102.431 61.68C100.975 63.136 99.1456 64.76 96.9429 66.552C94.5909 68.4933 92.7056 70.3227 91.2869 72.04C89.8682 73.72 89.0469 75.12 88.8229 76.24L99.0709 76.52C100.602 76.5573 101.927 76.5387 103.047 76.464C104.204 76.3893 105.1 76.0907 105.735 75.568C106.407 75.008 106.743 74.056 106.743 72.712H109.039L108.647 81H84.3429Z" fill="url(#paint0_linear_22_67)" fill-opacity="0.5"/>
</g>
<defs>
<filter id="filter0_d_22_67" x="0.00964355" y="0.904053" width="159.029" height="140.992" filterUnits="userSpaceOnUse" color-interpolation-filters="sRGB">
<feFlood flood-opacity="0" result="BackgroundImageFix"/>
<feColorMatrix in="SourceAlpha" type="matrix" values="0 0 0 0 0 0 0 0 0 0 0 0 0 0 0 0 0 0 127 0" result="hardAlpha"/>
<feOffset dy="10"/>
<feGaussianBlur stdDeviation="25"/>
<feColorMatrix type="matrix" values="0 0 0 0 0.317647 0 0 0 0 0.6 0 0 0 0 1 0 0 0 0.3 0"/>
<feBlend mode="normal" in2="BackgroundImageFix" result="effect1_dropShadow_22_67"/>
<feBlend mode="normal" in="SourceGraphic" in2="effect1_dropShadow_22_67" result="shape"/>
</filter>
<linearGradient id="paint0_linear_22_67" x1="79.5" y1="37" x2="79.5" y2="87" gradientUnits="userSpaceOnUse">
<stop stop-color="#5199FF"/>
<stop offset="1" stop-color="#1771F1"/>
</linearGradient>
</defs>
</svg>
