<svg width="162" height="142" viewBox="0 0 162 142" fill="none" xmlns="http://www.w3.org/2000/svg">
<g filter="url(#filter0_d_22_70)">
<path d="M65.3874 81.896C62.55 81.896 60.1794 81.2987 58.2754 80.104C56.3714 78.872 54.878 77.2667 53.7954 75.288C52.7127 73.272 51.9287 71.0693 51.4434 68.68C50.9954 66.2907 50.7714 63.92 50.7714 61.568C50.7714 59.216 51.0514 56.8267 51.6114 54.4C52.2087 51.9733 53.1047 49.752 54.2994 47.736C55.494 45.6827 57.0247 44.04 58.8914 42.808C60.758 41.5387 62.998 40.904 65.6114 40.904C68.3367 40.904 70.614 41.52 72.4434 42.752C74.31 43.984 75.8034 45.608 76.9234 47.624C78.0434 49.6027 78.846 51.7867 79.3314 54.176C79.8167 56.5653 80.0594 58.936 80.0594 61.288C80.0594 63.6027 79.7794 65.9733 79.2194 68.4C78.6594 70.8267 77.782 73.0667 76.5874 75.12C75.43 77.136 73.918 78.7787 72.0514 80.048C70.222 81.28 68.0007 81.896 65.3874 81.896ZM65.7234 79.096C67.254 79.096 68.5047 78.6293 69.4754 77.696C70.446 76.7627 71.2114 75.4933 71.7714 73.888C72.3687 72.2827 72.7794 70.4907 73.0034 68.512C73.2274 66.5333 73.3394 64.5173 73.3394 62.464C73.3394 60.1867 73.2274 57.9467 73.0034 55.744C72.7794 53.504 72.3687 51.4693 71.7714 49.64C71.2114 47.8107 70.4274 46.3547 69.4194 45.272C68.4114 44.1893 67.1047 43.648 65.4994 43.648C64.006 43.648 62.7367 44.1147 61.6914 45.048C60.646 45.9813 59.806 47.2507 59.1714 48.856C58.574 50.4613 58.126 52.272 57.8274 54.288C57.566 56.2667 57.4354 58.3013 57.4354 60.392C57.4354 61.96 57.4914 63.6027 57.6034 65.32C57.7527 67.0373 57.9954 68.7173 58.3314 70.36C58.7047 72.0027 59.19 73.4773 59.7874 74.784C60.422 76.0907 61.2247 77.136 62.1954 77.92C63.166 78.704 64.342 79.096 65.7234 79.096ZM97.1381 81.896C94.4127 81.896 92.1541 81.4853 90.3621 80.664C88.6074 79.8427 87.3007 78.8347 86.4421 77.64C85.6207 76.408 85.2101 75.2133 85.2101 74.056C85.2101 73.1227 85.4714 72.32 85.9941 71.648C86.5167 70.976 87.2447 70.6213 88.1781 70.584C88.9621 70.5467 89.5594 70.696 89.9701 71.032C90.4181 71.368 90.7167 71.76 90.8661 72.208C91.0527 72.656 91.1461 73.0853 91.1461 73.496C91.1461 73.8693 91.0901 74.2613 90.9781 74.672C90.8661 75.0453 90.6981 75.4373 90.4741 75.848C90.8474 76.9307 91.6314 77.7333 92.8261 78.256C94.0207 78.7413 95.3087 78.984 96.6901 78.984C99.2287 78.984 101.226 78.256 102.682 76.8C104.138 75.344 104.866 73.3467 104.866 70.808C104.866 69.3147 104.605 67.8587 104.082 66.44C103.597 65.0213 102.682 63.864 101.338 62.968C99.9941 62.072 98.0527 61.6613 95.5141 61.736C95.2154 61.736 94.8421 61.7547 94.3941 61.792C93.9461 61.792 93.5354 61.8107 93.1621 61.848V58.824C93.5354 58.824 93.8901 58.824 94.2261 58.824C94.5621 58.824 94.8981 58.824 95.2341 58.824C97.1007 58.824 98.5941 58.432 99.7141 57.648C100.871 56.864 101.711 55.8933 102.234 54.736C102.757 53.5413 103.018 52.3653 103.018 51.208C103.055 49.752 102.869 48.464 102.458 47.344C102.085 46.1867 101.45 45.2907 100.554 44.656C99.6581 43.984 98.4261 43.648 96.8581 43.648C95.4021 43.648 94.1327 44.0213 93.0501 44.768C92.0047 45.5147 91.3327 46.2987 91.0341 47.12C91.3701 47.5307 91.5941 47.96 91.7061 48.408C91.8554 48.8187 91.9301 49.2107 91.9301 49.584C91.9301 49.92 91.8181 50.3307 91.5941 50.816C91.4074 51.264 91.0901 51.6373 90.6421 51.936C90.2314 52.2347 89.6527 52.384 88.9061 52.384C88.0101 52.384 87.3194 52.0667 86.8341 51.432C86.3861 50.7973 86.1621 50.032 86.1621 49.136C86.1621 48.0533 86.5727 46.8773 87.3941 45.608C88.2154 44.3387 89.4847 43.2373 91.2021 42.304C92.9194 41.3707 95.0847 40.904 97.6981 40.904C99.7887 40.904 101.711 41.2213 103.466 41.856C105.258 42.4907 106.677 43.536 107.722 44.992C108.805 46.4107 109.346 48.3147 109.346 50.704C109.346 51.7867 109.066 52.9253 108.506 54.12C107.946 55.3147 107.013 56.416 105.706 57.424C104.437 58.432 102.682 59.2533 100.442 59.888C103.989 60.336 106.714 61.5307 108.618 63.472C110.559 65.376 111.53 67.6907 111.53 70.416C111.53 72.9547 110.877 75.0827 109.57 76.8C108.263 78.48 106.509 79.7493 104.306 80.608C102.141 81.4667 99.7514 81.896 97.1381 81.896Z" fill="url(#paint0_linear_22_70)" fill-opacity="0.5"/>
</g>
<defs>
<filter id="filter0_d_22_70" x="0.771376" y="0.904053" width="160.759" height="140.992" filterUnits="userSpaceOnUse" color-interpolation-filters="sRGB">
<feFlood flood-opacity="0" result="BackgroundImageFix"/>
<feColorMatrix in="SourceAlpha" type="matrix" values="0 0 0 0 0 0 0 0 0 0 0 0 0 0 0 0 0 0 127 0" result="hardAlpha"/>
<feOffset dy="10"/>
<feGaussianBlur stdDeviation="25"/>
<feColorMatrix type="matrix" values="0 0 0 0 0.317647 0 0 0 0 0.6 0 0 0 0 1 0 0 0 0.3 0"/>
<feBlend mode="normal" in2="BackgroundImageFix" result="effect1_dropShadow_22_70"/>
<feBlend mode="normal" in="SourceGraphic" in2="effect1_dropShadow_22_70" result="shape"/>
</filter>
<linearGradient id="paint0_linear_22_70" x1="81" y1="37" x2="81" y2="87" gradientUnits="userSpaceOnUse">
<stop stop-color="#5199FF"/>
<stop offset="1" stop-color="#1771F1"/>
</linearGradient>
</defs>
</svg>
