<svg width="161" height="142" viewBox="0 0 161 142" fill="none" xmlns="http://www.w3.org/2000/svg">
<g filter="url(#filter0_d_22_69)">
<path d="M64.7702 81.896C61.9329 81.896 59.5622 81.2987 57.6582 80.104C55.7542 78.872 54.2609 77.2667 53.1782 75.288C52.0955 73.272 51.3115 71.0693 50.8262 68.68C50.3782 66.2907 50.1542 63.92 50.1542 61.568C50.1542 59.216 50.4342 56.8267 50.9942 54.4C51.5915 51.9733 52.4875 49.752 53.6822 47.736C54.8769 45.6827 56.4075 44.04 58.2742 42.808C60.1409 41.5387 62.3809 40.904 64.9942 40.904C67.7195 40.904 69.9969 41.52 71.8262 42.752C73.6929 43.984 75.1862 45.608 76.3062 47.624C77.4262 49.6027 78.2289 51.7867 78.7142 54.176C79.1995 56.5653 79.4422 58.936 79.4422 61.288C79.4422 63.6027 79.1622 65.9733 78.6022 68.4C78.0422 70.8267 77.1649 73.0667 75.9702 75.12C74.8129 77.136 73.3009 78.7787 71.4342 80.048C69.6049 81.28 67.3835 81.896 64.7702 81.896ZM65.1062 79.096C66.6369 79.096 67.8875 78.6293 68.8582 77.696C69.8289 76.7627 70.5942 75.4933 71.1542 73.888C71.7515 72.2827 72.1622 70.4907 72.3862 68.512C72.6102 66.5333 72.7222 64.5173 72.7222 62.464C72.7222 60.1867 72.6102 57.9467 72.3862 55.744C72.1622 53.504 71.7515 51.4693 71.1542 49.64C70.5942 47.8107 69.8102 46.3547 68.8022 45.272C67.7942 44.1893 66.4875 43.648 64.8822 43.648C63.3889 43.648 62.1195 44.1147 61.0742 45.048C60.0289 45.9813 59.1889 47.2507 58.5542 48.856C57.9569 50.4613 57.5089 52.272 57.2102 54.288C56.9489 56.2667 56.8182 58.3013 56.8182 60.392C56.8182 61.96 56.8742 63.6027 56.9862 65.32C57.1355 67.0373 57.3782 68.7173 57.7142 70.36C58.0875 72.0027 58.5729 73.4773 59.1702 74.784C59.8049 76.0907 60.6075 77.136 61.5782 77.92C62.5489 78.704 63.7249 79.096 65.1062 79.096ZM105.257 73.888C105.257 74.7093 105.238 75.512 105.201 76.296C105.201 77.0427 105.145 77.6773 105.033 78.2C105.742 78.1627 106.47 78.144 107.217 78.144C108.001 78.1067 108.692 78.0693 109.289 78.032V81H94.6169V78.536H95.0089C96.1289 78.4613 97.0062 78.2 97.6409 77.752C98.2755 77.2667 98.7235 76.576 98.9849 75.68C99.2462 74.784 99.3769 73.6267 99.3769 72.208V70.416H82.9689V66.832L102.905 40.904H105.257V66.496L110.857 66.552V70.416H105.257V73.888ZM99.2649 50.144L87.1689 66.272L99.3769 66.384V50.144H99.2649Z" fill="url(#paint0_linear_22_69)" fill-opacity="0.5"/>
</g>
<defs>
<filter id="filter0_d_22_69" x="0.154188" y="0.904053" width="160.703" height="140.992" filterUnits="userSpaceOnUse" color-interpolation-filters="sRGB">
<feFlood flood-opacity="0" result="BackgroundImageFix"/>
<feColorMatrix in="SourceAlpha" type="matrix" values="0 0 0 0 0 0 0 0 0 0 0 0 0 0 0 0 0 0 127 0" result="hardAlpha"/>
<feOffset dy="10"/>
<feGaussianBlur stdDeviation="25"/>
<feColorMatrix type="matrix" values="0 0 0 0 0.317647 0 0 0 0 0.6 0 0 0 0 1 0 0 0 0.3 0"/>
<feBlend mode="normal" in2="BackgroundImageFix" result="effect1_dropShadow_22_69"/>
<feBlend mode="normal" in="SourceGraphic" in2="effect1_dropShadow_22_69" result="shape"/>
</filter>
<linearGradient id="paint0_linear_22_69" x1="80" y1="37" x2="80" y2="87" gradientUnits="userSpaceOnUse">
<stop stop-color="#5199FF"/>
<stop offset="1" stop-color="#1771F1"/>
</linearGradient>
</defs>
</svg>
