<svg width="161" height="144" viewBox="0 0 161 144" fill="none" xmlns="http://www.w3.org/2000/svg">
<g filter="url(#filter0_d_22_68)">
<path d="M64.7975 83.896C61.9602 83.896 59.5895 83.2987 57.6855 82.104C55.7815 80.872 54.2882 79.2667 53.2055 77.288C52.1229 75.272 51.3389 73.0693 50.8535 70.68C50.4055 68.2907 50.1815 65.92 50.1815 63.568C50.1815 61.216 50.4615 58.8267 51.0215 56.4C51.6189 53.9733 52.5149 51.752 53.7095 49.736C54.9042 47.6827 56.4349 46.04 58.3015 44.808C60.1682 43.5387 62.4082 42.904 65.0215 42.904C67.7469 42.904 70.0242 43.52 71.8535 44.752C73.7202 45.984 75.2135 47.608 76.3335 49.624C77.4535 51.6027 78.2562 53.7867 78.7415 56.176C79.2269 58.5653 79.4695 60.936 79.4695 63.288C79.4695 65.6027 79.1895 67.9733 78.6295 70.4C78.0695 72.8267 77.1922 75.0667 75.9975 77.12C74.8402 79.136 73.3282 80.7787 71.4615 82.048C69.6322 83.28 67.4109 83.896 64.7975 83.896ZM65.1335 81.096C66.6642 81.096 67.9149 80.6293 68.8855 79.696C69.8562 78.7627 70.6215 77.4933 71.1815 75.888C71.7789 74.2827 72.1895 72.4907 72.4135 70.512C72.6375 68.5333 72.7495 66.5173 72.7495 64.464C72.7495 62.1867 72.6375 59.9467 72.4135 57.744C72.1895 55.504 71.7789 53.4693 71.1815 51.64C70.6215 49.8107 69.8375 48.3547 68.8295 47.272C67.8215 46.1893 66.5149 45.648 64.9095 45.648C63.4162 45.648 62.1469 46.1147 61.1015 47.048C60.0562 47.9813 59.2162 49.2507 58.5815 50.856C57.9842 52.4613 57.5362 54.272 57.2375 56.288C56.9762 58.2667 56.8455 60.3013 56.8455 62.392C56.8455 63.96 56.9015 65.6027 57.0135 67.32C57.1629 69.0373 57.4055 70.7173 57.7415 72.36C58.1149 74.0027 58.6002 75.4773 59.1975 76.784C59.8322 78.0907 60.6349 79.136 61.6055 79.92C62.5762 80.704 63.7522 81.096 65.1335 81.096ZM96.4922 83.896C94.0656 83.896 92.0122 83.504 90.3322 82.72C88.6522 81.8987 87.3456 80.9093 86.4122 79.752C85.5162 78.5573 85.0682 77.4 85.0682 76.28C85.0682 75.3467 85.3296 74.544 85.8522 73.872C86.3749 73.2 87.1029 72.8453 88.0362 72.808C88.8202 72.7707 89.4176 72.92 89.8282 73.256C90.2762 73.5547 90.5749 73.928 90.7242 74.376C90.9109 74.824 91.0042 75.2533 91.0042 75.664C91.0042 76 90.9482 76.3733 90.8362 76.784C90.7616 77.1573 90.6122 77.5307 90.3882 77.904C90.5749 78.6133 91.0042 79.2293 91.6762 79.752C92.3482 80.2373 93.1322 80.592 94.0282 80.816C94.9242 81.04 95.7456 81.1333 96.4922 81.096C98.2096 81.0587 99.5909 80.6107 100.636 79.752C101.682 78.856 102.447 77.736 102.932 76.392C103.455 75.048 103.716 73.6293 103.716 72.136C103.716 71.1653 103.642 70.0827 103.492 68.888C103.343 67.656 103.007 66.4987 102.484 65.416C101.962 64.296 101.159 63.3813 100.076 62.672C98.9936 61.9253 97.5376 61.552 95.7082 61.552C95.1109 61.552 94.3829 61.6267 93.5242 61.776C92.6656 61.9253 91.7882 62.1493 90.8922 62.448C90.0336 62.7467 89.2496 63.12 88.5402 63.568L86.6922 62L86.5242 43.8H101.028C102.895 43.8 104.22 43.5387 105.004 43.016C105.788 42.4933 106.18 41.5413 106.18 40.16H108.364L108.028 48.112L89.6602 48.504V60.04C90.5562 59.6667 91.6949 59.3307 93.0762 59.032C94.4576 58.696 95.8762 58.528 97.3322 58.528C99.6469 58.528 101.626 58.8827 103.268 59.592C104.948 60.3013 106.311 61.2533 107.356 62.448C108.439 63.6427 109.223 64.9867 109.708 66.48C110.231 67.9733 110.492 69.504 110.492 71.072C110.492 73.872 109.82 76.2427 108.476 78.184C107.17 80.088 105.452 81.5253 103.324 82.496C101.196 83.4293 98.9189 83.896 96.4922 83.896Z" fill="url(#paint0_linear_22_68)" fill-opacity="0.5"/>
</g>
<defs>
<filter id="filter0_d_22_68" x="0.181534" y="0.160034" width="160.311" height="143.736" filterUnits="userSpaceOnUse" color-interpolation-filters="sRGB">
<feFlood flood-opacity="0" result="BackgroundImageFix"/>
<feColorMatrix in="SourceAlpha" type="matrix" values="0 0 0 0 0 0 0 0 0 0 0 0 0 0 0 0 0 0 127 0" result="hardAlpha"/>
<feOffset dy="10"/>
<feGaussianBlur stdDeviation="25"/>
<feColorMatrix type="matrix" values="0 0 0 0 0.317647 0 0 0 0 0.6 0 0 0 0 1 0 0 0 0.3 0"/>
<feBlend mode="normal" in2="BackgroundImageFix" result="effect1_dropShadow_22_68"/>
<feBlend mode="normal" in="SourceGraphic" in2="effect1_dropShadow_22_68" result="shape"/>
</filter>
<linearGradient id="paint0_linear_22_68" x1="80" y1="39" x2="80" y2="89" gradientUnits="userSpaceOnUse">
<stop stop-color="#5199FF"/>
<stop offset="1" stop-color="#1771F1"/>
</linearGradient>
</defs>
</svg>
